<?xml version="1.0" standalone="no"?>
<!DOCTYPE svg PUBLIC "-//W3C//DTD SVG 20010904//EN"
 "http://www.w3.org/TR/2001/REC-SVG-20010904/DTD/svg10.dtd">
<svg version="1.0" xmlns="http://www.w3.org/2000/svg"
 width="1030.000000pt" height="445.000000pt" viewBox="0 0 1030.000000 445.000000"
 preserveAspectRatio="xMidYMid meet">
<metadata>
Created by potrace 1.16, written by Peter Selinger 2001-2019
</metadata>
<g transform="translate(0.000000,445.000000) scale(0.100000,-0.100000)"
fill="#000000" stroke="none">
<path d="M350 4431 c-89 -29 -141 -60 -206 -125 -65 -65 -102 -127 -128 -215
-14 -49 -16 -229 -16 -1866 0 -1637 2 -1817 16 -1866 26 -88 63 -150 128 -215
65 -65 127 -102 215 -128 50 -15 464 -16 4791 -16 4327 0 4741 1 4791 16 88
26 150 63 215 128 65 65 102 127 128 215 14 49 16 229 16 1866 0 1637 -2 1817
-16 1866 -26 88 -63 150 -128 215 -65 65 -127 102 -215 128 -50 15 -464 16
-4795 15 -4516 0 -4744 -1 -4796 -18z m5134 -1073 c57 -17 119 -82 135 -140
25 -90 -3 -168 -82 -232 -32 -26 -48 -31 -105 -34 -83 -4 -142 23 -187 86 -39
57 -47 149 -17 208 52 100 150 143 256 112z m-3559 -72 c283 -80 445 -273 446
-531 1 -147 -53 -301 -144 -409 -23 -28 -36 -51 -30 -53 6 -2 41 -27 77 -54
98 -74 166 -174 212 -309 28 -84 25 -270 -5 -370 -56 -183 -123 -252 -246
-253 -89 0 -186 71 -201 148 -8 44 -3 75 31 205 27 105 28 106 10 165 -13 48
-27 70 -70 112 -44 43 -66 56 -135 77 -79 25 -89 26 -351 26 l-269 0 0 -392
c0 -434 -1 -439 -66 -500 -32 -30 -102 -58 -143 -58 -85 0 -179 69 -200 147
-7 25 -11 344 -11 973 0 888 1 937 19 976 21 46 81 100 126 114 17 5 217 8
460 6 368 -2 439 -5 490 -20z m2250 0 c111 -31 222 -91 291 -158 206 -197 211
-530 12 -782 l-38 -49 32 -20 c113 -67 217 -199 259 -328 21 -64 24 -91 23
-199 -2 -142 -27 -240 -86 -340 -76 -127 -246 -140 -346 -26 -53 60 -53 101
-2 286 46 167 -26 289 -202 345 -76 24 -89 25 -349 25 l-269 0 0 -392 c0 -434
-1 -439 -66 -500 -32 -30 -102 -58 -143 -58 -85 0 -179 69 -200 147 -7 25 -11
344 -11 973 0 892 1 937 19 976 21 45 72 92 123 111 25 9 142 12 463 9 368 -2
439 -5 490 -20z m4148 13 c47 -13 109 -67 133 -117 18 -35 19 -84 24 -852 l5
-815 145 -5 c156 -5 180 -12 232 -67 29 -31 58 -100 58 -141 0 -45 -23 -101
-57 -141 -55 -65 -87 -71 -383 -71 l-256 0 -55 27 c-40 21 -61 40 -84 77 l-30
49 -3 934 c-2 614 1 947 8 972 16 60 51 103 109 133 57 30 94 34 154 17z
m-1762 -29 c25 -16 56 -48 69 -72 l25 -43 3 -822 3 -823 127 0 c70 0 142 -4
161 -10 151 -43 201 -239 88 -348 -58 -56 -92 -62 -366 -62 -147 0 -262 5
-286 11 -52 14 -131 95 -140 141 -3 18 -4 461 -3 983 l3 950 24 33 c13 19 42
47 64 63 35 26 48 29 112 29 63 0 77 -4 116 -30z m-1031 -568 c33 -20 53 -42
73 -81 l27 -55 0 -645 c0 -420 -4 -659 -11 -684 -22 -81 -111 -146 -200 -147
-63 0 -139 40 -175 92 l-29 41 -3 671 c-3 754 -5 726 70 790 72 62 165 69 248
18z m-3775 -1211 c167 -76 163 -314 -7 -385 -133 -56 -288 49 -288 194 0 112
98 210 210 210 25 0 63 -9 85 -19z m2243 3 c78 -32 132 -111 132 -194 0 -192
-240 -281 -367 -137 -69 79 -69 189 0 273 56 68 154 92 235 58z m3644 -19 c63
-45 90 -104 86 -187 -4 -82 -39 -139 -108 -176 -64 -34 -152 -28 -212 13 -63
45 -90 104 -86 187 4 82 39 139 108 176 64 34 152 28 212 -13z m1776 19 c78
-32 132 -111 132 -194 0 -193 -245 -283 -367 -135 -137 166 38 412 235 329z"/>
<path d="M1257 2933 c-4 -3 -7 -120 -7 -259 0 -220 2 -253 16 -258 28 -11 421
-6 476 5 105 23 190 84 222 161 24 56 20 143 -8 203 -37 79 -103 126 -200 144
-64 12 -488 15 -499 4z"/>
<path d="M3508 2934 c-5 -4 -8 -121 -8 -260 0 -220 2 -253 16 -258 28 -11 421
-6 476 5 69 15 135 49 175 91 122 127 59 354 -115 409 -42 14 -532 25 -544 13z"/>
</g>
</svg>
